HIERARCHY
ROOT Hips
{
	OFFSET -0.001795 -0.223333 0.028219
	CHANNELS 6 Xposition Yposition Zposition Zrotation Yrotation Xrotation 
	JOINT LeftUpLeg
	{
		OFFSET 0.069520 -0.091406 -0.006815
		CHANNELS 3 Zrotation Yrotation Xrotation
		JOINT LeftLeg
		{
			OFFSET 0.034277 -0.375199 -0.004496
			CHANNELS 3 Zrotation Yrotation Xrotation
			JOINT LeftFoot
			{
				OFFSET -0.013596 -0.397961 -0.043693
				CHANNELS 3 Zrotation Yrotation Xrotation
				JOINT LeftToe
				{
					OFFSET 0.026358 -0.055791 0.119288
					CHANNELS 3 Zrotation Yrotation Xrotation
					End Site
					{
						OFFSET 0.000000 0.000000 0.000000
					}
				}
			}
		}
	}
	JOINT RightUpLeg
	{
		OFFSET -0.067670 -0.090522 -0.004320
		CHANNELS 3 Zrotation Yrotation Xrotation
		JOINT RightLeg
		{
			OFFSET -0.038290 -0.382569 -0.008850
			CHANNELS 3 Zrotation Yrotation Xrotation
			JOINT RightFoot
			{
				OFFSET 0.015774 -0.398415 -0.042312
				CHANNELS 3 Zrotation Yrotation Xrotation
				JOINT RightToe
				{
					OFFSET -0.025372 -0.048144 0.123348
					CHANNELS 3 Zrotation Yrotation Xrotation
					End Site
					{
						OFFSET 0.000000 0.000000 0.000000
					}
				}
			}
		}
	}
	JOINT Spine
	{
		OFFSET -0.002533 0.108963 -0.026696
		CHANNELS 3 Zrotation Yrotation Xrotation
		JOINT Spine1
		{
			OFFSET 0.005487 0.135180 0.001092
			CHANNELS 3 Zrotation Yrotation Xrotation
			JOINT Spine2
			{
				OFFSET 0.001457 0.052922 0.025425
				CHANNELS 3 Zrotation Yrotation Xrotation
				JOINT Neck
				{
					OFFSET -0.002778 0.213870 -0.042857
					CHANNELS 3 Zrotation Yrotation Xrotation
					JOINT Head
					{
						OFFSET 0.005152 0.064970 0.051349
						CHANNELS 3 Zrotation Yrotation Xrotation
						End Site
						{
							OFFSET 0.000000 0.000000 0.000000
						}
					}
				}
				JOINT LeftShoulder
				{
					OFFSET 0.078845 0.121749 -0.034090
					CHANNELS 3 Zrotation Yrotation Xrotation
					JOINT LeftArm
					{
						OFFSET 0.090977 0.030469 -0.008868
						CHANNELS 3 Zrotation Yrotation Xrotation
						JOINT LeftForeArm
						{
							OFFSET 0.259612 -0.012772 -0.027456
							CHANNELS 3 Zrotation Yrotation Xrotation
							JOINT LeftHand
							{
								OFFSET 0.249234 0.008986 -0.001171
								CHANNELS 3 Zrotation Yrotation Xrotation
								End Site
								{
									OFFSET 0.000000 0.000000 0.000000
								}
							}
						}
					}
				}
				JOINT RightShoulder
				{
					OFFSET -0.081759 0.118833 -0.038615
					CHANNELS 3 Zrotation Yrotation Xrotation
					JOINT RightArm
					{
						OFFSET -0.096012 0.032551 -0.009143
						CHANNELS 3 Zrotation Yrotation Xrotation
						JOINT RightForeArm
						{
							OFFSET -0.253742 -0.013329 -0.021401
							CHANNELS 3 Zrotation Yrotation Xrotation
							JOINT RightHand
							{
								OFFSET -0.255298 0.007772 -0.005559
								CHANNELS 3 Zrotation Yrotation Xrotation
								End Site
								{
									OFFSET 0.000000 0.000000 0.000000
								}
							}
						}
					}
				}
			}
		}
	}
}
MOTION
Frames: 5
Frame Time: 0.050000
-1.181459 0.950125 0.046446 -4.598209 -37.778192 -0.782378 -1.352465 0.798809 5.853135 -0.783642 0.200781 -0.653172 -1.455524 -2.416731 8.353988 0.000000 0.000000 0.000000 0.666820 1.390833 -12.199044 3.869765 1.882828 21.202967 -7.996355 -20.573559 9.300380 0.000000 0.000000 0.000000 -5.122816 2.386791 24.431966 12.424683 -2.410638 -23.830825 -0.574322 -5.109461 23.212898 -7.354736 1.680377 -29.191640 0.000000 0.000000 0.000000 -36.539490 7.173316 4.029980 -3.983588 14.902754 -0.390743 -104.734156 -10.829819 10.697085 0.000000 0.000000 0.000000 12.190176 5.728625 -2.993282 6.203048 -19.487376 -1.019158 110.253051 -4.392631 -24.163647 0.000000 0.000000 0.000000 
-1.200264 0.949826 0.066453 -4.330892 -33.769292 -0.873497 -1.504758 1.152910 8.057935 0.788464 -0.056096 -2.052795 -3.268526 -5.539698 8.117951 0.000000 0.000000 0.000000 0.352166 1.714939 -14.166650 3.854461 0.559844 12.195965 -7.061318 -21.004467 14.591451 0.000000 0.000000 0.000000 -4.321498 1.945176 24.519965 11.889563 -2.139449 -25.038225 -0.977955 -4.502275 24.252311 -6.177304 1.415906 -28.930567 0.000000 0.000000 0.000000 -36.938607 6.737418 3.267796 -3.119110 14.112092 -0.125990 -104.535487 -10.376454 9.551873 0.000000 0.000000 0.000000 13.266659 4.978346 -3.105935 5.636254 -18.759926 -0.832536 109.963693 -4.178549 -22.491677 0.000000 0.000000 0.000000 
-1.219681 0.947986 0.088344 -3.786226 -30.515676 -0.318492 -1.804072 1.227242 8.566975 2.093664 -0.252028 -1.731374 -4.588013 -7.910429 7.489968 0.000000 0.000000 0.000000 0.688946 2.133631 -16.414481 4.409401 -0.023508 4.412387 -4.087574 -18.131280 18.841976 0.000000 0.000000 0.000000 -3.174883 1.282863 23.085262 10.681258 -2.338051 -22.770357 -1.008219 -4.395265 22.074437 -7.517725 2.619622 -26.687221 0.000000 0.000000 0.000000 -36.087399 7.176134 1.770762 -4.191896 14.580743 -0.441874 -103.557600 -7.679176 6.840567 0.000000 0.000000 0.000000 13.546314 5.529133 -2.548782 5.771564 -18.860603 -0.833082 110.428063 -3.772535 -20.863861 0.000000 0.000000 0.000000 
-1.239943 0.946710 0.113045 -2.830372 -28.021820 -0.738681 -2.416291 1.547945 10.251695 3.302935 -0.410510 -1.608354 -5.752381 -9.873550 7.750973 0.000000 0.000000 0.000000 1.605116 2.131622 -16.096868 3.626594 -0.105526 0.609405 1.748032 -10.018398 20.179023 0.000000 0.000000 0.000000 -3.002194 1.103348 23.102351 10.311903 -1.897659 -25.345686 -1.822397 -3.336149 24.730291 -7.317906 2.752172 -27.895756 0.000000 0.000000 0.000000 -36.422565 6.450362 1.470146 -2.940050 15.334707 -0.018735 -102.817466 -6.138769 3.532871 0.000000 0.000000 0.000000 16.330185 5.054155 -3.009089 2.850336 -18.388266 -0.110959 111.157531 -3.177648 -18.761161 0.000000 0.000000 0.000000 
-1.261087 0.943526 0.140535 -2.466787 -24.976309 -0.550031 -2.150384 1.740727 11.567527 4.389481 -0.552641 -1.216533 -7.106897 -12.223973 7.642083 0.000000 0.000000 0.000000 2.877900 2.248864 -16.192657 1.355188 0.008760 1.833959 5.091071 -4.799979 21.109543 0.000000 0.000000 0.000000 -2.262753 0.628348 21.420087 8.920195 -1.828145 -24.144048 -0.996501 -3.640563 24.427858 -7.857925 3.342831 -26.521889 0.000000 0.000000 0.000000 -36.378601 7.121562 0.259823 -3.005526 15.497757 -0.030889 -102.530621 -5.077611 2.344164 0.000000 0.000000 0.000000 16.057572 5.687944 -2.312435 2.803675 -20.383168 -0.110172 111.378391 -2.014811 -16.462516 0.000000 0.000000 0.000000 
